# xmcd CD database file
#
# Track frame offsets:
#	150
#	23010
#	45940
#	69340
#	87865
#	103330
#	124587
#	140570
#	170315
#	188227
#	207620
#	233007
#	249450
#	259725
#	278442
#	298567
#
# Disc length: 4225 seconds
#
# Revision: 2
# Processed by: cddbd v1.5.2PL0 Copyright (c) Steve Scherf et al.
# Submitted via: CDex 1.51
#
DISCID=dc107f10
DTITLE=¿Ô¶‚±°∫q - The Immersion Of Jazz
DYEAR=2000
DGENRE=Jazz
TTITLE0=Diana Robbis - Cry Me A River
TTITLE1=Phobe Krall - The Way We Were
TTITLE2=Clare R. - Just The Way You Are
TTITLE3=Gus Fishcher - Roxanne
TTITLE4=Ronnie Morris - House Of The Rising Sun
TTITLE5=Diana Robbis - The Look Of Love
TTITLE6=Barie Mergon - Crazy
TTITLE7=Clare  Filna - Over The Rainbow
TTITLE8=Wahara - Smooth
TTITLE9=Karen Barron - That's The Way It Is
TTITLE10=Attica S. - Another Star
TTITLE11=Julie Teal - Under Paris Skies
TTITLE12=Jasmine R. - You For Me
TTITLE13=Euines - If
TTITLE14=Kenny Yolies - Sentimental Journey
TTITLE15=Boosey - As Time Goes By
EXTD=YEAR: 2000
EXTT0=
EXTT1=
EXTT2=
EXTT3=
EXTT4=
EXTT5=
EXTT6=
EXTT7=
EXTT8=
EXTT9=
EXTT10=
EXTT11=
EXTT12=
EXTT13=
EXTT14=
EXTT15=
PLAYORDER=
